<?xml version="1.0" encoding="UTF-8" standalone="no"?>
<svg
   xmlns:dc="http://purl.org/dc/elements/1.1/"
   xmlns:cc="http://creativecommons.org/ns#"
   xmlns:rdf="http://www.w3.org/1999/02/22-rdf-syntax-ns#"
   xmlns:svg="http://www.w3.org/2000/svg"
   xmlns="http://www.w3.org/2000/svg"
   version="1.1"
   viewBox="0 0 5600 2800"
   data-name="Layer 1"
   id="Layer_1">
  <metadata
     id="metadata297">
    <rdf:RDF>
      <cc:Work
         rdf:about="">
        <dc:format>image/svg+xml</dc:format>
        <dc:type
           rdf:resource="http://purl.org/dc/dcmitype/StillImage" />
        <dc:title>Tavola disegno 11</dc:title>
      </cc:Work>
    </rdf:RDF>
  </metadata>
  <defs
     id="defs4">
    <style
       id="style2">.cls-1{fill:#fff;}.cls-2{fill:none;}.cls-3{fill:#231f20;}.cls-4{fill:#211f1f;}</style>
  </defs>
  <title
     id="title6">Tavola disegno 11</title>
  <rect
     style="opacity:0.1"
     id="rect8"
     height="2800"
     width="5600"
     class="cls-1" />
  <path
     style="opacity:0.1"
     id="path10"
     d="M2800,88.89v5.43c.37-1.45.77-2.91,1.23-4.35Z"
     class="cls-2" />
  <path
     style="opacity:0.1"
     id="path12"
     d="M1414.89,438.51a74.72,74.72,0,0,0,17.42-2.06l111.52,146.64a74.85,74.85,0,1,0,135,63.89,74.82,74.82,0,1,0-25.48-147.15L1541.87,353.19a74.85,74.85,0,1,0-135-63.89,74.82,74.82,0,0,0,8.06,149.21ZM1384.7,324a49.71,49.71,0,0,1,41.91-8.74,49.81,49.81,0,1,1,83.88,37.92L1645,530a49.82,49.82,0,1,1,14.14,91,49.81,49.81,0,1,1-83.88-37.92L1440.75,406.25A49.82,49.82,0,0,1,1384.7,324Z"
     class="cls-3" />
  <path
     style="opacity:0.1"
     id="path14"
     d="M731.9,2322.45a74.43,74.43,0,0,0-10.58-38.7,74.8,74.8,0,0,0-102.59-25.91,74.17,74.17,0,0,0-36,73.47l-158.23,94.42a74.72,74.72,0,0,0-81.67-3.28A74.84,74.84,0,0,0,346,2552.72a74.44,74.44,0,0,0,10.58,38.7,74.8,74.8,0,0,0,102.59,25.91,74.17,74.17,0,0,0,36-73.47l158.23-94.41a74.72,74.72,0,0,0,81.66,3.28,74.84,74.84,0,0,0-3.11-130.28Zm-9.69,108.81a49.82,49.82,0,0,1-65.44-13L466,2532.12a49.82,49.82,0,1,1-92,3.87,49.81,49.81,0,1,1,47.08-79.1l190.76-113.82a49.82,49.82,0,1,1,92-3.87,49.81,49.81,0,0,1,18.36,92.07Z"
     class="cls-3" />
  <path
     style="opacity:0.1"
     id="path16"
     d="M407.64,549.31a75.12,75.12,0,0,0,16.11,1.76,74.15,74.15,0,0,0,23.92-4A74.85,74.85,0,1,0,543.39,432.4L583,252.47a74.83,74.83,0,0,0-14.77-148.18,74.14,74.14,0,0,0-23.92,4A74.85,74.85,0,1,0,448.57,223L409,402.89a74.82,74.82,0,0,0-1.34,146.42Zm-32.58-83.77a49.82,49.82,0,0,1,54.27-38.8l47.73-216.95a49.82,49.82,0,1,1,60.18-69.66,49.81,49.81,0,1,1,25.39,88.48L514.9,445.57a49.82,49.82,0,1,1-60.18,69.66,49.81,49.81,0,0,1-79.66-49.68Z"
     class="cls-3" />
  <path
     style="opacity:0.1"
     id="path18"
     d="M1610.59,975a74.33,74.33,0,0,0-52.81-22.16h-.3a74.24,74.24,0,0,0-68.39,44.37l-184.18-.78a74.18,74.18,0,0,0-68.36-45h-.3a74.84,74.84,0,0,0-64.24,113.2,74.83,74.83,0,0,0,63.62,113.74h.3a74.25,74.25,0,0,0,68.39-44.37l184.18.78a74.18,74.18,0,0,0,68.36,45h.3a74.84,74.84,0,0,0,64.24-113.2A74.79,74.79,0,0,0,1610.59,975ZM1607,1105.21a49.82,49.82,0,0,1-99.39,4.73l-222.14-.95a49.82,49.82,0,1,1-80.77-44.15,49.81,49.81,0,1,1,81.15-43.46l222.14.95a49.82,49.82,0,1,1,80.77,44.15A49.71,49.71,0,0,1,1607,1105.21Z"
     class="cls-3" />
  <path
     style="opacity:0.1"
     id="path20"
     d="M1038.81,1526a74.45,74.45,0,0,0,13.7-37.71,74.83,74.83,0,1,0-68-133l-150-107a74.89,74.89,0,0,0-73.26-90.07,74.86,74.86,0,0,0-74.65,69.08,74.83,74.83,0,1,0,68,133l150,107a74.89,74.89,0,0,0,73.26,90.07A75,75,0,0,0,1038.81,1526Zm-20.35-14.52A49.82,49.82,0,0,1,934.57,1458L753.72,1329a49.82,49.82,0,1,1-40.47-82.68,49.81,49.81,0,1,1,91.35,11.35l180.85,129a49.82,49.82,0,1,1,40.47,82.68A49.71,49.71,0,0,1,1018.46,1511.51Z"
     class="cls-3" />
  <path
     style="opacity:0.1"
     id="path22"
     d="M267.3,1148a74.85,74.85,0,1,0,145.06-35.75L550.79,990.75a74.89,74.89,0,0,0,80.94-11.62A74.8,74.8,0,0,0,605,851.61,74.85,74.85,0,1,0,460,887.36L321.54,1008.89A74.82,74.82,0,1,0,267.3,1148ZM257.09,1039.3a49.82,49.82,0,0,1,66.7.88L490.73,893.63a49.82,49.82,0,1,1,89.74-20.49,49.81,49.81,0,1,1-31.94,86.33L381.6,1106a49.82,49.82,0,1,1-89.74,20.49,49.81,49.81,0,0,1-34.76-87.21Z"
     class="cls-3" />
  <path
     style="opacity:0.1"
     id="path24"
     d="M721.72,1855.19A74.29,74.29,0,0,0,711,1856l-97.79-156.14A74.85,74.85,0,1,0,484.47,1624a74.82,74.82,0,1,0,12.05,148.84L594.32,1929A74.85,74.85,0,1,0,723,2004.81a74.82,74.82,0,0,0-1.31-149.63Zm26.49,117a49.71,49.71,0,0,1-42.53,4.91,49.81,49.81,0,1,1-80.1-45.36L507.67,1743.52a49.82,49.82,0,1,1-5.85-91.86,49.81,49.81,0,1,1,80.1,45.36l117.91,188.26a49.82,49.82,0,0,1,48.38,87Z"
     class="cls-3" />
  <path
     style="opacity:0.1"
     id="path26"
     d="M1591.64,1843.66a74.47,74.47,0,0,0,29.41-27.28,74.85,74.85,0,1,0,.25-149.4l-84.56-163.66a74.83,74.83,0,1,0-122-86.19,74.85,74.85,0,1,0-.26,149.4l84.56,163.66a74.83,74.83,0,0,0,92.58,113.48ZM1530,1735.54l-102-197.35a49.82,49.82,0,1,1,1.75-92,49.81,49.81,0,1,1,76.08,51.82l102,197.35a49.82,49.82,0,1,1-1.75,92,49.81,49.81,0,1,1-76.08-51.82Z"
     class="cls-3" />
  <path
     style="opacity:0.1"
     id="path28"
     d="M5355.54,331.15a74.86,74.86,0,0,0-25.25-88.71,74.85,74.85,0,1,0-148.92-11.92L5011.6,302a75.26,75.26,0,0,0-51.43-20.45,74.84,74.84,0,0,0-44,135.33,74.86,74.86,0,0,0,74.08,85.58h0a74.93,74.93,0,0,0,74.84-73.65l169.77-71.52a75.27,75.27,0,0,0,51.43,20.45,74.87,74.87,0,0,0,69.27-46.61Zm-50,17.69a49.82,49.82,0,0,1-63-21.92l-204.71,86.24a49.82,49.82,0,1,1-91.62-8.94,49.81,49.81,0,1,1,57.6-71.8l204.71-86.24a49.82,49.82,0,1,1,91.62,8.94,49.81,49.81,0,0,1,5.4,93.72Z"
     class="cls-3" />
  <path
     style="opacity:0.1"
     id="path30"
     d="M4679.81,795.44a74.47,74.47,0,0,0-.35,40.11,74.85,74.85,0,1,0,108.46,102.75l177,50.86a74.17,74.17,0,0,0,53.53,61.85,74.94,74.94,0,0,0,20.68,2.92h0a74.86,74.86,0,0,0,72.23-94.29,74.85,74.85,0,1,0-108.46-102.75l-177-50.86a74.17,74.17,0,0,0-53.53-61.85,74.77,74.77,0,0,0-92.57,51.25Zm24,6.9a49.82,49.82,0,0,1,96.93,22.49l213.5,61.34A49.82,49.82,0,1,1,5080,950.63a49.81,49.81,0,1,1-89.91,19.74L4776.57,909a49.82,49.82,0,1,1-65.71-64.46A49.71,49.71,0,0,1,4703.84,802.34Z"
     class="cls-3" />
  <path
     style="opacity:0.1"
     id="path32"
     d="M3207.64,549.31a75.12,75.12,0,0,0,16.11,1.76,74.15,74.15,0,0,0,23.92-4,74.85,74.85,0,1,0,95.72-114.71L3383,252.47a74.83,74.83,0,0,0-14.77-148.18,74.14,74.14,0,0,0-23.92,4A74.85,74.85,0,1,0,3248.57,223L3209,402.89a74.82,74.82,0,0,0-1.34,146.42Zm-32.58-83.77a49.82,49.82,0,0,1,54.27-38.8l47.73-216.95a49.82,49.82,0,1,1,60.18-69.66,49.81,49.81,0,1,1,25.39,88.48L3314.9,445.57a49.82,49.82,0,1,1-60.18,69.66,49.81,49.81,0,0,1-79.66-49.68Z"
     class="cls-3" />
  <path
     style="opacity:0.1"
     id="path34"
     d="M5073.36,1645.74a74.83,74.83,0,0,0-69.6-102l-74-168.7a74.85,74.85,0,1,0-116.3-93.77,74.82,74.82,0,1,0-9.74,149l74,168.7a74.85,74.85,0,1,0,116.3,93.77,74.8,74.8,0,0,0,79.34-47Zm-92.48,17.1a49.81,49.81,0,1,1-72.64-56.54L4819,1402.88a49.82,49.82,0,1,1,7.59-91.74,49.81,49.81,0,1,1,72.64,56.54l89.25,203.42a49.82,49.82,0,1,1-7.59,91.74Z"
     class="cls-3" />
  <path
     style="opacity:0.1"
     id="path36"
     d="M3645.21,671.17a74.85,74.85,0,0,0,68.73,104.28,75.65,75.65,0,0,0,10.37-.72A74.17,74.17,0,0,0,3786,721.06l182.43-25.37a74.7,74.7,0,0,0,63.65,35.52,75.61,75.61,0,0,0,10.36-.72,74.84,74.84,0,0,0,47.84-121.21A74.85,74.85,0,0,0,4021.6,505a75.52,75.52,0,0,0-10.37.72,74.17,74.17,0,0,0-61.73,53.68l-182.43,25.37a74.7,74.7,0,0,0-63.65-35.52,74.86,74.86,0,0,0-74.17,85.13A74.45,74.45,0,0,0,3645.21,671.17Zm51.28-96.45a49.82,49.82,0,0,1,55.23,37.41l220-30.59A49.82,49.82,0,1,1,4058,613.78a49.81,49.81,0,1,1-74.15,54.54l-220,30.59a49.82,49.82,0,1,1-86.22-32.24,49.81,49.81,0,0,1,18.92-92Z"
     class="cls-3" />
  <path
     style="opacity:0.1"
     id="path38"
     d="M3136.21,1225.57a74.85,74.85,0,1,0,141.58-47.69l127.85-132.63a74.89,74.89,0,0,0,79.69-18.31,74.8,74.8,0,0,0-37.21-124.85,74.85,74.85,0,1,0-141.58,47.69L3178.69,1082.4a74.82,74.82,0,1,0-42.48,143.17ZM3117,1118.06a49.82,49.82,0,0,1,66.55-4.68l154.17-159.93a49.82,49.82,0,1,1,87.73-27.89,49.81,49.81,0,1,1-24.65,88.69l-154.17,159.93a49.82,49.82,0,1,1-87.73,27.89,49.81,49.81,0,0,1-41.9-84Z"
     class="cls-3" />
  <path
     style="opacity:0.1"
     id="path40"
     d="M5255.61,1954.92a75,75,0,0,0-18.23-2.26,74.18,74.18,0,0,0-21.84,3.3,74.85,74.85,0,1,0-99.05,111.84l-44.85,178.67a74.83,74.83,0,1,0,34.43,145.31,74.85,74.85,0,1,0,99.05-111.84L5250,2101.26a74.83,74.83,0,0,0,5.65-146.35Zm30.1,84.7a49.82,49.82,0,0,1-55.38,37.19l-54.08,215.45a49.82,49.82,0,1,1-62.2,67.86,49.81,49.81,0,1,1-22.78-89.19l54.08-215.45a49.82,49.82,0,1,1,62.2-67.86,49.81,49.81,0,0,1,78.16,52Z"
     class="cls-3" />
  <path
     style="opacity:0.1"
     id="path42"
     d="M4271.3,2207.32a74.76,74.76,0,0,0-81.61,4.79l-159.95-91.44a74.9,74.9,0,0,0-74.42-82.66,74.86,74.86,0,0,0-74.86,76.58,74.82,74.82,0,1,0,80.92,125.52l159.95,91.44a74.9,74.9,0,0,0,74.42,82.66h0a74.86,74.86,0,0,0,74.86-76.58,74.83,74.83,0,0,0,.69-130.31Zm6.12,89.68a49.71,49.71,0,0,1-35.17,24.42,49.81,49.81,0,1,1-92-2.15L3957.37,2209a49.82,49.82,0,1,1-48.54-78.21,49.81,49.81,0,1,1,92,2.15l192.85,110.25a49.82,49.82,0,0,1,83.71,53.79Z"
     class="cls-3" />
  <path
     style="opacity:0.1"
     id="path44"
     d="M81.48,667.49a74.33,74.33,0,0,0-4.29-57.1A74.33,74.33,0,0,0,33.79,573,74.59,74.59,0,0,0,0,570v25.4a49.81,49.81,0,1,1,0,97.41v79.44l17.65-53.67A74.26,74.26,0,0,0,81.48,667.49Z"
     class="cls-3" />
  <path
     style="opacity:0.1"
     id="path46"
     d="M265.69,2028a74.92,74.92,0,0,0-81.1-10.48L44.44,1898a74.17,74.17,0,0,0-23.15-78.46A74.83,74.83,0,0,0,0,1806.77v28a50.28,50.28,0,0,1,5.07,3.78,49.82,49.82,0,0,1,8.71,66.14l169,144.17a49.82,49.82,0,1,1,33.16,85.87,49.81,49.81,0,1,1-90-19.22L0,2008.07v32.86l95.25,81.25a74.88,74.88,0,0,0,71.68,96.36h0a74.86,74.86,0,0,0,73.86-62.66A74.82,74.82,0,0,0,265.69,2028Z"
     class="cls-3" />
  <path
     style="opacity:0.1"
     id="path48"
     d="M966,181.83a74.8,74.8,0,0,0,40.12,0A74.85,74.85,0,1,0,1108,72.63L1128.25,0h-26l-23.49,84.19a49.82,49.82,0,1,1-64,66.21,49.81,49.81,0,1,1-20.44-89.75L1011.34,0h-26l-10,35.69A74.82,74.82,0,0,0,966,181.83Z"
     class="cls-3" />
  <path
     style="opacity:0.1"
     id="path50"
     d="M2695.83,1289.07a75,75,0,0,0,50.68,46.69l19.71,131.46,7.6,50.71a74.17,74.17,0,0,0-34,74.4,75.18,75.18,0,0,0,3.65,14.44h0a74.85,74.85,0,0,0,118.06,32.1,74.83,74.83,0,1,0,48.39-141.32l-11.71-78.13-15.6-104a74.16,74.16,0,0,0,34-74.4,74.76,74.76,0,0,0-85.08-62.9,74.45,74.45,0,0,0-36.63,16.35,74.83,74.83,0,0,0-102.71,80.19A75.2,75.2,0,0,0,2695.83,1289.07Zm63-74.8a49.71,49.71,0,0,1,41,12.48,49.81,49.81,0,1,1,55.33,73.57l19.16,127.78L2888,1520a49.82,49.82,0,1,1-31.32,86.56,49.81,49.81,0,1,1-55.33-73.57l-11.16-74.46-21.77-145.23a49.82,49.82,0,0,1-9.64-99Z"
     class="cls-3" />
  <path
     style="opacity:0.1"
     id="path52"
     d="M1167,2549a74.8,74.8,0,0,0-40.12,0,74.85,74.85,0,1,0-101.91,109.24L985.38,2800h26l42.78-153.32a49.82,49.82,0,1,1,64-66.21,49.81,49.81,0,1,1,20.44,89.75L1102.29,2800h26l29.24-104.83A74.82,74.82,0,0,0,1167,2549Z"
     class="cls-3" />
  <path
     style="opacity:0.1"
     id="path54"
     d="M2801.23,90c-.46,1.44-.86,2.9-1.23,4.35a74,74,0,0,0,0,36.53,74.92,74.92,0,0,0,146.35-5.38A74.79,74.79,0,0,0,2975.12,0H2869.43l20.23,17.7A49.82,49.82,0,1,1,2921.75,104,49.81,49.81,0,1,1,2832,83.64l-32-28L2736.36,0h-38L2800,88.89Z"
     class="cls-3" />
  <path
     style="opacity:0.1"
     id="path56"
     d="M4527.23,17.93a74.86,74.86,0,0,0,74.21,84.68,74.93,74.93,0,0,0,74.85-74.55L4740.71,0H4678.1L4648.9,12.72a49.82,49.82,0,1,1-91.72-7.83A50.19,50.19,0,0,1,4545.61,0h-36.24A74.21,74.21,0,0,0,4527.23,17.93Z"
     class="cls-3" />
  <path
     style="opacity:0.1"
     id="path58"
     d="M2155.69,2517.39a74.92,74.92,0,0,0,63-52.17l183-21a74.85,74.85,0,1,0,123.91-83.46A74.83,74.83,0,1,0,2386,2307.54l-58.62,6.72L2203,2328.5a74.88,74.88,0,0,0-119.36-13.29h0a74.86,74.86,0,0,0-4.55,96.75,74.82,74.82,0,0,0,76.56,105.43Zm-58-68.66a49.71,49.71,0,0,1,13.89-40.5A49.81,49.81,0,1,1,2187,2355.5l164.44-18.83,56.26-6.44a49.82,49.82,0,1,1,85.42,34.31,49.8,49.8,0,0,1-14.91,90.34,49.73,49.73,0,0,1-60.53-37.61L2197,2442.54a49.82,49.82,0,0,1-99.31,6.19Z"
     class="cls-3" />
  <path
     style="opacity:0.1"
     id="path60"
     d="M3766,181.83a74.8,74.8,0,0,0,40.12,0A74.85,74.85,0,1,0,3908,72.63L3928.25,0h-26l-23.49,84.19a49.82,49.82,0,1,1-64,66.21,49.81,49.81,0,1,1-20.44-89.75L3811.34,0h-26l-10,35.69A74.82,74.82,0,0,0,3766,181.83Z"
     class="cls-3" />
  <path
     style="opacity:0.1"
     id="path62"
     d="M5600,130.84V94.31A74,74,0,0,0,5600,130.84Z"
     class="cls-3" />
  <path
     style="opacity:0.1"
     id="path64"
     d="M2923.58,2779.38a75.23,75.23,0,0,0-31.72,7L2800,2706.05l-46.79-40.93a74.85,74.85,0,1,0-145.12-35.49,74.82,74.82,0,1,0,54.49,139l35.81,31.33h38l-71.58-62.61a49.82,49.82,0,1,1-32.09-86.27,49.81,49.81,0,1,1,89.78,20.33l77.54,67.83,69.42,60.73h105.69c-.75-.72-1.51-1.42-2.3-2.11A74.77,74.77,0,0,0,2923.58,2779.38Z"
     class="cls-3" />
  <path
     style="opacity:0.1"
     id="path66"
     d="M5515.81,1827.87a74.45,74.45,0,0,0-16.92,36.4,74.83,74.83,0,1,0,56.21,138.37l44.89,38.29v-32.86l-43.08-36.75a49.82,49.82,0,1,1-33.16-85.87,49.8,49.8,0,0,1,76.24-50.7v-28a74.73,74.73,0,0,0-84.18,21.09Z"
     class="cls-3" />
  <path
     style="opacity:0.1"
     id="path68"
     d="M5560.35,548.88a74.85,74.85,0,0,0-73.43,126.75l-57.56,175A74.83,74.83,0,1,0,5453.29,998a74.85,74.85,0,1,0,106.8-104.46L5600,772.26V692.82l-.18,0-69.41,211A49.82,49.82,0,1,1,5463.51,967a49.81,49.81,0,1,1-16.32-90.59l69.41-211a49.82,49.82,0,1,1,66.91-63.22,50.11,50.11,0,0,1,16.49-6.79V570q-3.16.45-6.28,1.16A74.47,74.47,0,0,0,5560.35,548.88Z"
     class="cls-3" />
  <path
     style="opacity:0.1"
     id="path70"
     d="M4939.25,2638.48a74.85,74.85,0,1,0-149.05-10.13l-168.91,73.57a75.42,75.42,0,0,0-50.76-19.84,74.83,74.83,0,0,0-68.57,104.7,75.32,75.32,0,0,0,7.42,13.22h36.24a49.81,49.81,0,1,1,68.31-67.61l203.66-88.7a49.82,49.82,0,1,1,91.72,7.83,49.81,49.81,0,1,1-56.73,72.49l-174.46,76h62.61l104.49-45.51a75.42,75.42,0,0,0,50.76,19.84,74.84,74.84,0,0,0,43.29-135.85Z"
     class="cls-3" />
  <path
     style="opacity:0.1"
     id="path72"
     d="M3967,2549a74.8,74.8,0,0,0-40.12,0,74.85,74.85,0,1,0-101.91,109.24L3785.38,2800h26l42.78-153.32a49.82,49.82,0,1,1,64-66.21,49.81,49.81,0,1,1,20.44,89.75L3902.29,2800h26l29.24-104.83A74.82,74.82,0,0,0,3967,2549Z"
     class="cls-3" />
  <path
     style="opacity:0.1"
     id="path74"
     d="M2722.46,2671.44a49.82,49.82,0,1,0-89.78-20.33,49.81,49.81,0,1,0,32.09,86.27l71.58,62.61h133.07L2800,2739.27Z"
     class="cls-1" />
  <path
     style="opacity:0.1"
     id="path76"
     d="M2768.42,1313.31l21.77,145.23,11.16,74.46a49.82,49.82,0,1,0,55.33,73.57A49.81,49.81,0,1,0,2888,1520l-13.78-91.9-19.16-127.78a49.82,49.82,0,1,0-55.33-73.57,49.81,49.81,0,1,0-31.32,86.56Z"
     class="cls-1" />
  <path
     style="opacity:0.1"
     id="path78"
     d="M249.46,2047a49.82,49.82,0,0,0-66.69,1.82l-169-144.17a49.82,49.82,0,0,0-8.71-66.14A50.28,50.28,0,0,0,0,1834.74v173.33l125.92,107.42a49.82,49.82,0,1,0,90,19.22A49.81,49.81,0,0,0,249.46,2047Z"
     class="cls-1" />
  <path
     style="opacity:0.1"
     id="path80"
     d="M972.68,157.74a49.71,49.71,0,0,0,42.18-7.35,49.81,49.81,0,1,0,64-66.21L1102.29,0h-91L994.42,60.65a49.82,49.82,0,0,0-21.74,97.1Z"
     class="cls-1" />
  <path
     style="opacity:0.1"
     id="path82"
     d="M1160.24,2573.12a49.71,49.71,0,0,0-42.18,7.35,49.81,49.81,0,1,0-64,66.21L1011.34,2800h91l36.21-129.78a49.82,49.82,0,0,0,21.74-97.1Z"
     class="cls-1" />
  <path
     style="opacity:0.1"
     id="path84"
     d="M1440.75,406.25l134.47,176.82A49.82,49.82,0,1,0,1659.09,621,49.81,49.81,0,1,0,1645,530L1510.48,353.22a49.82,49.82,0,1,0-83.88-37.92,49.81,49.81,0,1,0,14.14,91Z"
     class="cls-1" />
  <path
     style="opacity:0.1"
     id="path86"
     d="M703.84,2339.19a49.81,49.81,0,1,0-92,3.87L421.11,2456.88A49.82,49.82,0,1,0,374,2536a49.81,49.81,0,1,0,92-3.87l190.76-113.82a49.82,49.82,0,1,0,47.08-79.1Z"
     class="cls-1" />
  <path
     style="opacity:0.1"
     id="path88"
     d="M413,524.9a49.71,49.71,0,0,0,41.7-9.68,49.81,49.81,0,1,0,60.18-69.66l47.73-216.95a49.82,49.82,0,1,0-25.39-88.48,49.81,49.81,0,1,0-60.18,69.66L429.33,426.74A49.82,49.82,0,0,0,413,524.9Z"
     class="cls-1" />
  <path
     style="opacity:0.1"
     id="path90"
     d="M1285.44,1109l222.14.95a49.82,49.82,0,1,0,81.15-43.46,49.81,49.81,0,1,0-80.77-44.15l-222.14-.95a49.82,49.82,0,1,0-81.15,43.46,49.81,49.81,0,1,0,80.77,44.15Z"
     class="cls-1" />
  <path
     style="opacity:0.1"
     id="path92"
     d="M1018.46,1511.51a49.71,49.71,0,0,0,7.46-42.16,49.81,49.81,0,1,0-40.47-82.68l-180.85-129a49.82,49.82,0,1,0-91.35-11.35A49.81,49.81,0,1,0,753.72,1329l180.85,129a49.82,49.82,0,0,0,83.89,53.51Z"
     class="cls-1" />
  <path
     style="opacity:0.1"
     id="path94"
     d="M373.82,1172.27A49.82,49.82,0,0,0,381.6,1106L548.53,959.47a49.82,49.82,0,1,0,31.94-86.33,49.81,49.81,0,1,0-89.74,20.49L323.8,1040.18a49.82,49.82,0,1,0-31.94,86.33,49.81,49.81,0,0,0,82,45.76Z"
     class="cls-1" />
  <path
     style="opacity:0.1"
     id="path96"
     d="M699.83,1885.28,581.92,1697a49.82,49.82,0,1,0-80.1-45.36,49.81,49.81,0,1,0,5.85,91.87l117.91,188.26a49.82,49.82,0,1,0,80.1,45.36,49.81,49.81,0,1,0-5.85-91.86Z"
     class="cls-1" />
  <path
     style="opacity:0.1"
     id="path98"
     d="M1580.16,1821.45a49.71,49.71,0,0,0,25.89-34.1,49.81,49.81,0,1,0,1.75-92l-102-197.35a49.82,49.82,0,1,0-76.08-51.82,49.81,49.81,0,1,0-1.75,92l102,197.35a49.82,49.82,0,0,0,50.19,85.92Z"
     class="cls-1" />
  <path
     style="opacity:0.1"
     id="path100"
     d="M57.73,659.67A49.79,49.79,0,0,0,0,595.41v97.41A49.82,49.82,0,0,0,57.73,659.67Z"
     class="cls-1" />
  <path
     style="opacity:0.1"
     id="path102"
     d="M5300.18,255.12a49.81,49.81,0,1,0-91.62-8.94l-204.71,86.24a49.82,49.82,0,1,0-57.6,71.8,49.81,49.81,0,1,0,91.62,8.94l204.71-86.24a49.82,49.82,0,1,0,57.6-71.8Z"
     class="cls-1" />
  <path
     style="opacity:0.1"
     id="path104"
     d="M4716.62,938.28a49.82,49.82,0,0,0,60-29.24l213.5,61.34A49.82,49.82,0,1,0,5080,950.63a49.81,49.81,0,1,0-65.71-64.46l-213.5-61.34a49.82,49.82,0,1,0-89.91,19.74,49.81,49.81,0,0,0,5.76,93.7Z"
     class="cls-1" />
  <path
     style="opacity:0.1"
     id="path106"
     d="M3213,524.9a49.71,49.71,0,0,0,41.7-9.68,49.81,49.81,0,1,0,60.18-69.66l47.73-216.95a49.82,49.82,0,1,0-25.39-88.48,49.81,49.81,0,1,0-60.18,69.66l-47.73,216.95A49.82,49.82,0,0,0,3213,524.9Z"
     class="cls-1" />
  <path
     style="opacity:0.1"
     id="path108"
     d="M5049.28,1598.54a49.82,49.82,0,0,0-60.81-27.43l-89.25-203.42a49.82,49.82,0,1,0-72.64-56.54,49.81,49.81,0,1,0-7.59,91.74l89.25,203.42a49.82,49.82,0,1,0,72.64,56.54,49.81,49.81,0,0,0,68.4-64.31Z"
     class="cls-1" />
  <path
     style="opacity:0.1"
     id="path110"
     d="M3983.81,668.32A49.82,49.82,0,1,0,4058,613.78a49.81,49.81,0,1,0-86.22-32.24l-220,30.59a49.82,49.82,0,1,0-74.16,54.54,49.81,49.81,0,1,0,86.22,32.24Z"
     class="cls-1" />
  <path
     style="opacity:0.1"
     id="path112"
     d="M3400.79,1014.26a49.82,49.82,0,1,0,24.65-88.69,49.81,49.81,0,1,0-87.73,27.89l-154.17,159.93a49.82,49.82,0,1,0-24.65,88.69,49.81,49.81,0,1,0,87.73-27.89Z"
     class="cls-1" />
  <path
     style="opacity:0.1"
     id="path114"
     d="M5249.52,1979.16a49.71,49.71,0,0,0-42,8.45,49.81,49.81,0,1,0-62.2,67.86l-54.08,215.45a49.82,49.82,0,1,0,22.78,89.19,49.81,49.81,0,1,0,62.2-67.86l54.08-215.45a49.82,49.82,0,0,0,19.19-97.63Z"
     class="cls-1" />
  <path
     style="opacity:0.1"
     id="path116"
     d="M4258.89,2229a49.82,49.82,0,0,0-65.19,14.18L4000.85,2133a49.82,49.82,0,1,0-92-2.15,49.81,49.81,0,1,0,48.54,78.21l192.85,110.25a49.82,49.82,0,1,0,92,2.15,49.81,49.81,0,0,0,16.64-92.39Z"
     class="cls-1" />
  <path
     style="opacity:0.1"
     id="path118"
     d="M2832,83.64A49.82,49.82,0,1,0,2921.75,104a49.81,49.81,0,1,0-32.09-86.27L2869.43,0H2736.36L2800,55.67Z"
     class="cls-1" />
  <path
     style="opacity:0.1"
     id="path120"
     d="M4555.74,47.67a49.82,49.82,0,0,0,93.16-35L4678.1,0H4545.61a50.19,50.19,0,0,0,11.58,4.88A49.71,49.71,0,0,0,4555.74,47.67Z"
     class="cls-1" />
  <path
     style="opacity:0.1"
     id="path122"
     d="M5583.51,602.2a49.81,49.81,0,1,0-66.91,63.22l-69.41,211A49.82,49.82,0,1,0,5463.51,967a49.81,49.81,0,1,0,66.91-63.22l69.41-211,.18,0V595.41A50.11,50.11,0,0,0,5583.51,602.2Z"
     class="cls-1" />
  <path
     style="opacity:0.1"
     id="path124"
     d="M5534.83,1844.1a49.7,49.7,0,0,0-11.08,41.35,49.81,49.81,0,1,0,33.16,85.87l43.08,36.75V1834.74A49.82,49.82,0,0,0,5534.83,1844.1Z"
     class="cls-1" />
  <path
     style="opacity:0.1"
     id="path126"
     d="M2152.85,2492.55a49.82,49.82,0,0,0,44.15-50l220.69-25.28a49.82,49.82,0,1,0,75.45-52.73,49.81,49.81,0,1,0-85.42-34.31l-56.26,6.44L2187,2355.5a49.82,49.82,0,1,0-75.45,52.73,49.81,49.81,0,0,0,41.27,84.32Z"
     class="cls-1" />
  <path
     style="opacity:0.1"
     id="path128"
     d="M3772.68,157.74a49.71,49.71,0,0,0,42.18-7.35,49.81,49.81,0,1,0,64-66.21L3902.29,0h-91l-16.92,60.65a49.82,49.82,0,0,0-21.74,97.1Z"
     class="cls-1" />
  <path
     style="opacity:0.1"
     id="path130"
     d="M4909.3,2651.52a49.81,49.81,0,1,0-91.72-7.83l-203.66,88.7a49.82,49.82,0,1,0-68.31,67.61H4678.1l174.46-76a49.82,49.82,0,1,0,56.73-72.49Z"
     class="cls-1" />
  <path
     style="opacity:0.1"
     id="path132"
     d="M3960.24,2573.12a49.71,49.71,0,0,0-42.18,7.35,49.81,49.81,0,1,0-64,66.21L3811.34,2800h91l36.21-129.78a49.82,49.82,0,0,0,21.74-97.1Z"
     class="cls-1" />
  <path
     style="opacity:0.1"
     id="path134"
     d="M1203.34,2261.77c26-57,18.5-141.36-25.81-168.16s-122.45,5.72-160.94,55.18c-54.2,69.66,36.77,74.54,70.21,94.77S1166.79,2342.11,1203.34,2261.77Z"
     class="cls-4" />
  <path
     style="opacity:0.1"
     id="path136"
     d="M1221.68,1996.68c-12.13,34.67-45.46,55.58-74.47,46.69s-42.68-44.2-30.56-78.87,45.46-55.58,74.47-46.69S1233.81,1962,1221.68,1996.68Z"
     class="cls-4" />
  <path
     style="opacity:0.1"
     id="path138"
     d="M1096.15,2029.61c-2.37,31.89-27.13,56.51-55.31,55s-49.1-28.62-46.73-60.52,27.13-56.51,55.31-55S1098.52,1997.71,1096.15,2029.61Z"
     class="cls-4" />
  <path
     style="opacity:0.1"
     id="path140"
     d="M1242.91,2009.52c-25.09,26.83-28.13,66.07-6.8,87.63s59,17.3,84-9.54,28.13-66.07,6.8-87.63S1268,1982.69,1242.91,2009.52Z"
     class="cls-4" />
  <path
     style="opacity:0.1"
     id="path142"
     d="M1272,2136c-27.15,16.9-37.47,50.26-23,74.51s48.14,30.21,75.29,13.31,37.47-50.26,23-74.51S1299.15,2119.1,1272,2136Z"
     class="cls-4" />
  <path
     style="opacity:0.1"
     id="path144"
     d="M2328,1664c-26.12-57-94.72-106.54-144-90.61s-75.86,96.29-63.68,157.77c17.15,86.58,80.41,21,117.6,9S2364.79,1744.23,2328,1664Z"
     class="cls-4" />
  <path
     style="opacity:0.1"
     id="path146"
     d="M2139.66,1476.55c18.27,31.87,12.24,70.76-13.47,86.86s-61.35,3.32-79.62-28.55S2034.34,1464.1,2060,1448,2121.39,1444.68,2139.66,1476.55Z"
     class="cls-4" />
  <path
     style="opacity:0.1"
     id="path148"
     d="M2082.35,1593c22.55,22.68,24.94,57.51,5.34,77.81s-53.78,18.37-76.34-4.31-24.94-57.51-5.34-77.81S2059.79,1570.32,2082.35,1593Z"
     class="cls-4" />
  <path
     style="opacity:0.1"
     id="path150"
     d="M2163.27,1468.92c3.85,36.53,31.51,64.52,61.78,62.52s51.68-33.23,47.83-69.76-31.51-64.52-61.78-62.52S2159.41,1432.39,2163.27,1468.92Z"
     class="cls-4" />
  <path
     style="opacity:0.1"
     id="path152"
     d="M2277.91,1529.75c-5,31.59,13.45,61.23,41.23,66.2s54.35-16.6,59.36-48.19-13.45-61.23-41.23-66.2S2282.91,1498.17,2277.91,1529.75Z"
     class="cls-4" />
  <path
     style="opacity:0.1"
     id="path154"
     d="M2880.55,868.59c-7.83-62.18-58.4-130-110.19-129.63s-101.25,69.1-108.07,131.4c-9.61,87.74,70.41,44.17,109.49,43.85S2891.59,956.16,2880.55,868.59Z"
     class="cls-4" />
  <path
     style="opacity:0.1"
     id="path156"
     d="M2757.11,633.29c7.87,35.88-9.55,71.17-38.9,78.82s-59.52-15.24-67.39-51.12,9.55-71.17,38.9-78.82S2749.24,597.4,2757.11,633.29Z"
     class="cls-4" />
  <path
     style="opacity:0.1"
     id="path158"
     d="M2667.51,727.18c14.71,28.4,6.55,62.34-18.24,75.82s-56.82,1.39-71.53-27-6.55-62.34,18.24-75.82S2652.79,698.78,2667.51,727.18Z"
     class="cls-4" />
  <path
     style="opacity:0.1"
     id="path160"
     d="M2781.92,633.08c-7.28,36,10.71,71,40.18,78.17s59.27-16.2,66.55-52.21-10.71-71-40.18-78.17S2789.2,597.08,2781.92,633.08Z"
     class="cls-4" />
  <path
     style="opacity:0.1"
     id="path162"
     d="M2873,725.5c-14.25,28.63-5.53,62.44,19.48,75.52s56.83.46,71.08-28.17,5.53-62.44-19.48-75.52S2887.28,696.87,2873,725.5Z"
     class="cls-4" />
  <path
     style="opacity:0.1"
     id="path164"
     d="M1167.24,573.32c-60.64-15.82-142.44,5.93-161.28,54.16s26.56,119.67,81.87,149.14c77.89,41.5,67.16-49,81.38-85.37S1252.65,595.6,1167.24,573.32Z"
     class="cls-4" />
  <path
     style="opacity:0.1"
     id="path166"
     d="M902.92,600.55c36.24,6,62.53,35.3,58.73,65.39s-36.25,49.61-72.49,43.58-62.53-35.3-58.73-65.39S866.68,594.52,902.92,600.55Z"
     class="cls-4" />
  <path
     style="opacity:0.1"
     id="path168"
     d="M956.81,718.61c31.83-3.12,60.32,17.08,63.63,45.1S1000.63,817,968.8,820.09,908.48,803,905.17,775,925,721.73,956.81,718.61Z"
     class="cls-4" />
  <path
     style="opacity:0.1"
     id="path170"
     d="M911.94,577.44c30.72,20.13,69.9,16.43,87.51-8.27s7-61-23.76-81.18-69.9-16.43-87.51,8.27S881.22,557.3,911.94,577.44Z"
     class="cls-4" />
  <path
     style="opacity:0.1"
     id="path172"
     d="M1031.59,527.16c21.29,23.87,55.92,28.33,77.35,10s21.54-52.59.25-76.46-55.92-28.33-77.35-10S1010.3,503.3,1031.59,527.16Z"
     class="cls-4" />
  <path
     style="opacity:0.1"
     id="path174"
     d="M3562.81,1348.34c53.13,33.25,137.68,37,170.1-3.41s10.48-122.13-33.48-166.81c-61.9-62.91-78.73,26.62-103.2,57.11S3488,1301.52,3562.81,1348.34Z"
     class="cls-4" />
  <path
     style="opacity:0.1"
     id="path176"
     d="M3823.17,1401.47c-32.77-16.59-49.1-52.4-36.47-80s49.44-36.48,82.21-19.89,49.1,52.4,36.47,80S3855.94,1418.07,3823.17,1401.47Z"
     class="cls-4" />
  <path
     style="opacity:0.1"
     id="path178"
     d="M3807.07,1272.69c-31.3-6.55-52.44-34.35-47.21-62.08s34.85-44.9,66.15-38.34,52.44,34.35,47.21,62.08S3838.38,1279.25,3807.07,1272.69Z"
     class="cls-4" />
  <path
     style="opacity:0.1"
     id="path180"
     d="M3807.64,1420.82c-23.29-28.41-61.78-36.6-86-18.3s-24.92,56.16-1.63,84.57,61.78,36.6,86,18.3S3830.93,1449.23,3807.64,1420.82Z"
     class="cls-4" />
  <path
     style="opacity:0.1"
     id="path182"
     d="M3678.42,1433c-13.17-29.14-44.88-43.77-70.82-32.66s-36.29,43.74-23.12,72.88,44.88,43.77,70.82,32.66S3691.6,1462.13,3678.42,1433Z"
     class="cls-4" />
  <path
     style="opacity:0.1"
     id="path184"
     d="M4371.53,341.65c3.43,62.58,49.1,133.84,100.78,137.07s105.86-61.79,117.06-123.46c15.76-86.84-67.12-49-106.13-51.46S4366.7,253.52,4371.53,341.65Z"
     class="cls-4" />
  <path
     style="opacity:0.1"
     id="path186"
     d="M4478.09,585.07c-5.32-36.35,14.54-70.32,44.36-75.88s58.3,19.39,63.62,55.74-14.54,70.32-44.36,75.88S4483.41,621.42,4478.09,585.07Z"
     class="cls-4" />
  <path
     style="opacity:0.1"
     id="path188"
     d="M4574.08,497.73c-12.68-29.36-2.14-62.65,23.54-74.35s56.77,2.62,69.45,32,2.14,62.65-23.54,74.35S4586.76,527.09,4574.08,497.73Z"
     class="cls-4" />
  <path
     style="opacity:0.1"
     id="path190"
     d="M4453.33,583.53c9.8-35.4-5.68-71.58-34.57-80.81s-60.26,12-70.06,47.39,5.68,71.58,34.57,80.81S4443.53,618.93,4453.33,583.53Z"
     class="cls-4" />
  <path
     style="opacity:0.1"
     id="path192"
     d="M4369,484.91c16.23-27.56,9.92-61.9-14.11-76.7s-56.66-4.47-72.89,23.09-9.92,61.9,14.11,76.7S4352.72,512.47,4369,484.91Z"
     class="cls-4" />
  <path
     style="opacity:0.1"
     id="path194"
     d="M4717.69,2264.9c14.1-61.07-9.95-142.21-58.7-159.68s-118.87,29.93-146.77,86c-39.29,79,50.85,65.75,87.64,78.93S4697.83,2350.9,4717.69,2264.9Z"
     class="cls-4" />
  <path
     style="opacity:0.1"
     id="path196"
     d="M4683,2001.45c-5,36.39-33.52,63.5-63.71,60.56s-50.61-34.84-45.61-71.23,33.52-63.5,63.71-60.56S4688,1965.06,4683,2001.45Z"
     class="cls-4" />
  <path
     style="opacity:0.1"
     id="path198"
     d="M4566.52,2058.66c4,31.73-15.37,60.78-43.29,64.87s-53.81-18.3-57.82-50,15.37-60.77,43.29-64.87S4562.5,2026.93,4566.52,2058.66Z"
     class="cls-4" />
  <path
     style="opacity:0.1"
     id="path200"
     d="M4706.37,2009.82c-19.26,31.28-14.45,70.34,10.74,87.24s61.22,5.24,80.47-26,14.45-70.34-10.74-87.24S4725.62,1978.54,4706.37,2009.82Z"
     class="cls-4" />
  <path
     style="opacity:0.1"
     id="path202"
     d="M4760,2128c-23.25,22-26.74,56.7-7.78,77.6s53.18,20,76.44-1.91,26.74-56.7,7.78-77.6S4783.25,2106,4760,2128Z"
     class="cls-4" />
  <path
     style="opacity:0.1"
     id="path204"
     d="M3375.72,2369.64c-41.87,46.63-60.06,129.29-25.84,168.16s118.52,31.29,170.08-4.35c72.61-50.18-12.71-82.14-38.54-111.47S3434.69,2304,3375.72,2369.64Z"
     class="cls-4" />
  <path
     style="opacity:0.1"
     id="path206"
     d="M3278.67,2617c22-29.44,60-39.38,85-22.2s27.45,55,5.48,84.4-60,39.38-85,22.2S3256.7,2646.45,3278.67,2617Z"
     class="cls-4" />
  <path
     style="opacity:0.1"
     id="path208"
     d="M3408.31,2623.27c11.83-29.71,42.84-45.77,69.26-35.85s38.25,42,26.42,71.75-42.84,45.77-69.26,35.85S3396.48,2653,3408.31,2623.27Z"
     class="cls-4" />
  <path
     style="opacity:0.1"
     id="path210"
     d="M3262.28,2598.39c32-18.07,46.66-54.58,32.79-81.55s-51.05-34.19-83-16.12-46.66,54.58-32.79,81.55S3230.3,2616.46,3262.28,2598.39Z"
     class="cls-4" />
  <path
     style="opacity:0.1"
     id="path212"
     d="M3272.48,2469c31-8,50.82-36.7,44.33-64.16s-36.86-43.26-67.83-35.29-50.82,36.7-44.33,64.16S3241.51,2477,3272.48,2469Z"
     class="cls-4" />
  <path
     style="opacity:0.1"
     id="path214"
     d="M3014.81,2135.22a75,75,0,0,0,3.66-18,74.18,74.18,0,0,0-1.61-22A74.85,74.85,0,1,0,2913,1987.83l-174.69-58.45a74.83,74.83,0,1,0-147.52,23.15,74.85,74.85,0,1,0,103.89,107.36l174.69,58.45a74.83,74.83,0,0,0,145.48,16.88Zm-86.76,23.5a49.82,49.82,0,0,1-32.82-58.08l-210.66-70.49a49.82,49.82,0,1,1-62.88-67.23,49.81,49.81,0,1,1,90.68-15.85L2923,2017.56a49.82,49.82,0,1,1,62.88,67.23,49.81,49.81,0,0,1-57.86,73.93Z"
     class="cls-3" />
  <path
     style="opacity:0.1"
     id="path216"
     d="M2991.1,2127.29a49.71,49.71,0,0,0-5.19-42.5,49.81,49.81,0,1,0-62.88-67.23l-210.66-70.49a49.82,49.82,0,1,0-90.68,15.85,49.81,49.81,0,1,0,62.88,67.23l210.66,70.49a49.82,49.82,0,0,0,95.87,26.64Z"
     class="cls-1" />
  <path
     style="opacity:0.1"
     id="path218"
     d="M1662.09,2232.6a74.87,74.87,0,0,0-87.52,97h0a74.88,74.88,0,0,0,63.68,50.43,74.82,74.82,0,1,0,134.26-65.37l109.87-147.89a74.85,74.85,0,1,0,23.83-147.48A74.82,74.82,0,1,0,1772,2084.71ZM1797,2018a49.81,49.81,0,0,1,89.75,27.55,49.81,49.81,0,1,1-13.12,91.11L1741.17,2315a49.82,49.82,0,1,1-83.44,38.86,49.81,49.81,0,1,1,13.12-91.11l132.47-178.32A49.82,49.82,0,0,1,1797,2018Z"
     class="cls-3" />
  <path
     style="opacity:0.1"
     id="path220"
     d="M1741.17,2315l132.47-178.32a49.82,49.82,0,1,0,13.12-91.11,49.81,49.81,0,1,0-83.44,38.86l-132.47,178.32a49.82,49.82,0,1,0-13.12,91.11,49.81,49.81,0,1,0,83.44-38.86Z"
     class="cls-1" />
  <path
     style="opacity:0.1"
     id="path222"
     d="M1964.81,969.44a74.47,74.47,0,0,0-.35,40.11,74.85,74.85,0,1,0,108.46,102.75l177,50.86a74.17,74.17,0,0,0,53.53,61.85,74.93,74.93,0,0,0,20.68,2.92h0a74.86,74.86,0,0,0,72.23-94.29,74.85,74.85,0,1,0-108.46-102.75l-177-50.86a74.17,74.17,0,0,0-53.53-61.85,74.77,74.77,0,0,0-92.57,51.25Zm24,6.9a49.82,49.82,0,0,1,96.93,22.49l213.5,61.34a49.82,49.82,0,1,1,65.71,64.46,49.81,49.81,0,1,1-89.91,19.74L2061.57,1083a49.82,49.82,0,1,1-65.71-64.46A49.71,49.71,0,0,1,1988.84,976.34Z"
     class="cls-3" />
  <path
     style="opacity:0.1"
     id="path224"
     d="M2372,1166.87a49.71,49.71,0,0,0-7-42.23,49.81,49.81,0,1,0-65.71-64.46l-213.5-61.34a49.82,49.82,0,1,0-89.91,19.74,49.81,49.81,0,1,0,65.71,64.46l213.5,61.34a49.82,49.82,0,0,0,96.93,22.49Z"
     class="cls-1" />
  <path
     style="opacity:0.1"
     id="path226"
     d="M2507.5,388.25a74.86,74.86,0,0,0-38.11-84,74.85,74.85,0,1,0-149,10.26L2163,410.39a75.26,75.26,0,0,0-53.89-12.61,74.84,74.84,0,0,0-23.49,140.35,74.86,74.86,0,0,0,85.93,73.66h0a74.93,74.93,0,0,0,63.1-83.92L2392,432a75.27,75.27,0,0,0,53.9,12.61,74.87,74.87,0,0,0,61.6-56.36Zm-46.78,24.9a49.82,49.82,0,0,1-65.56-12.35L2205.48,516.41a49.82,49.82,0,1,1-91.93,4.73,49.81,49.81,0,1,1,46.33-79.54L2349.56,326a49.82,49.82,0,1,1,91.93-4.73,49.81,49.81,0,0,1,19.22,91.89Z"
     class="cls-3" />
  <path
     style="opacity:0.1"
     id="path228"
     d="M2441.49,321.26a49.81,49.81,0,1,0-91.93,4.73L2159.88,441.6a49.82,49.82,0,1,0-46.33,79.54,49.81,49.81,0,1,0,91.93-4.73L2395.16,400.8a49.82,49.82,0,1,0,46.33-79.54Z"
     class="cls-1" />
  <path
     style="opacity:0.1"
     id="path230"
     d="M4230,833.83a74.33,74.33,0,0,0-38.4,42.49l-.1.28a74.24,74.24,0,0,0,19.22,79.23L4149,1129.36a74.18,74.18,0,0,0-65.06,49.62l-.1.28a74.84,74.84,0,0,0,85.54,98.1A74.83,74.83,0,0,0,4297.78,1255l.1-.28a74.25,74.25,0,0,0-19.22-79.23L4340.39,1002a74.18,74.18,0,0,0,65.06-49.62l.1-.28A74.84,74.84,0,0,0,4320,854a74.79,74.79,0,0,0-90-20.13Zm121.63,46.52a49.82,49.82,0,0,1-28.45,95.35L4248.74,1185a49.82,49.82,0,1,1-68.41,61.6,49.81,49.81,0,1,1-14.14-91l74.45-209.29a49.82,49.82,0,1,1,68.41-61.59A49.71,49.71,0,0,1,4351.64,880.35Z"
     class="cls-3" />
  <path
     style="opacity:0.1"
     id="path232"
     d="M4107.51,1187.34a49.81,49.81,0,0,0,72.83,59.24,49.81,49.81,0,1,0,68.41-61.6l74.45-209.29a49.82,49.82,0,1,0-14.14-91,49.81,49.81,0,1,0-68.41,61.59l-74.45,209.29A49.82,49.82,0,0,0,4107.51,1187.34Z"
     class="cls-1" />
  <path
     style="opacity:0.1"
     id="path234"
     d="M4473.12,1612.86a74.47,74.47,0,0,0-27.73-29,74.85,74.85,0,1,0-149.38,2L4133.65,1673a74.83,74.83,0,1,0-84.32,123.29,74.85,74.85,0,1,0,149.38-2l162.35-87.06a74.83,74.83,0,0,0,112-94.3Zm-107.17,63.32-195.77,105a49.82,49.82,0,1,1-92.05-.35,49.81,49.81,0,1,1,50.65-76.87l195.77-105a49.82,49.82,0,1,1,92.05.35,49.81,49.81,0,1,1-50.65,76.86Z"
     class="cls-3" />
  <path
     style="opacity:0.1"
     id="path236"
     d="M4416.6,1599.31a49.81,49.81,0,1,0-92.05-.35l-195.77,105a49.82,49.82,0,1,0-50.65,76.87,49.81,49.81,0,1,0,92.05.35l195.77-105a49.82,49.82,0,1,0,50.65-76.86Z"
     class="cls-1" />
  <path
     style="opacity:0.1"
     id="path238"
     d="M3551.72,1879.19a74.29,74.29,0,0,0-10.75.79l-97.79-156.14A74.85,74.85,0,1,0,3314.47,1648a74.82,74.82,0,1,0,12.05,148.84L3424.32,1953A74.85,74.85,0,1,0,3553,2028.81a74.82,74.82,0,0,0-1.31-149.63Zm26.49,117a49.71,49.71,0,0,1-42.53,4.91,49.81,49.81,0,1,1-80.1-45.36l-117.91-188.26a49.82,49.82,0,1,1-5.85-91.86,49.81,49.81,0,1,1,80.1,45.36l117.91,188.26a49.82,49.82,0,0,1,48.38,87Z"
     class="cls-3" />
  <path
     style="opacity:0.1"
     id="path240"
     d="M3529.83,1909.28,3411.92,1721a49.82,49.82,0,1,0-80.1-45.36,49.81,49.81,0,1,0,5.85,91.87l117.91,188.26a49.82,49.82,0,1,0,80.1,45.36,49.81,49.81,0,1,0-5.85-91.86Z"
     class="cls-1" />
  <path
     style="opacity:0.1"
     id="path242"
     d="M0,127.63a100.92,100.92,0,0,1,16.41-1.69c39.09,0,119.45,42.92,109.13-44.74C122.23,53.08,110.2,23.73,93.24,0H0Z"
     class="cls-4" />
  <path
     style="opacity:0.1"
     id="path244"
     d="M5600,2752.91c-22.51,6-43.83,23.87-60.43,47.09H5600Z"
     class="cls-4" />
  <path
     style="opacity:0.1"
     id="path246"
     d="M5564.47,2723.4c16.1-4.06,28.67-16.43,35.53-32.68v-59.06c-11.3-28.16-37.34-44.88-63-38.43-29.41,7.41-47.12,42.56-39.54,78.5S5535.06,2730.81,5564.47,2723.4Z"
     class="cls-4" />
  <path
     style="opacity:0.1"
     id="path248"
     d="M5432.95,2800h77.55c12-16.46,13.95-40.69,3.15-61.95-14.48-28.52-46.41-40.87-71.31-27.59s-33.34,47.16-18.86,75.67A64.59,64.59,0,0,0,5432.95,2800Z"
     class="cls-4" />
  <path
     style="opacity:0.1"
     id="path250"
     d="M138,13.73C158.42,24.6,183.51,18.29,199.89,0H122.33A46.44,46.44,0,0,0,138,13.73Z"
     class="cls-4" />
  <path
     style="opacity:0.1"
     id="path252"
     d="M1864.67,0H1687.52a90,90,0,0,1,2.75,12.93c4.72,38.8-28.17,123.76,57.6,102.93C1805.53,101.85,1863.93,49.2,1864.67,0Z"
     class="cls-4" />
  <path
     style="opacity:0.1"
     id="path254"
     d="M0,2800H93.24c-20.58-28.8-48.44-49.32-76.83-49.32A63.18,63.18,0,0,0,0,2752.91Z"
     class="cls-4" />
  <path
     style="opacity:0.1"
     id="path256"
     d="M4,2644.9a79.6,79.6,0,0,0-4-13.24v59.06A77.37,77.37,0,0,0,4,2644.9Z"
     class="cls-4" />
  <path
     style="opacity:0.1"
     id="path258"
     d="M68.36,2723.4c29.41,7.41,59.4-15.72,67-51.66s-10.13-71.09-39.54-78.5-59.4,15.72-67,51.66S38.95,2716,68.36,2723.4Z"
     class="cls-4" />
  <path
     style="opacity:0.1"
     id="path260"
     d="M190.49,2710.47c-24.9-13.28-56.83-.93-71.31,27.59-10.8,21.25-8.85,45.48,3.15,61.95h77.55a64.59,64.59,0,0,0,9.47-13.86C223.84,2757.62,215.39,2723.74,190.49,2710.47Z"
     class="cls-4" />
  <path
     style="opacity:0.1"
     id="path262"
     d="M1864.25,2791.75c-6.26-51.41-80.07-92.81-142.75-92.56-79.23.31-45.19,60.44-34,100.81h177.14A60.69,60.69,0,0,0,1864.25,2791.75Z"
     class="cls-4" />
  <path
     style="opacity:0.1"
     id="path264"
     d="M1885.06,2736.9c10.91,28.3,47.94,41.63,82.7,29.77s54.1-44.42,43.19-72.72-47.94-41.63-82.7-29.77S1874.15,2708.6,1885.06,2736.9Z"
     class="cls-4" />
  <path
     style="opacity:0.1"
     id="path266"
     d="M1864.37,2688.22c26.56-17.82,35-51,18.77-74.12s-50.84-27.4-77.4-9.58-35,51-18.77,74.12S1837.81,2706,1864.37,2688.22Z"
     class="cls-4" />
  <path
     style="opacity:0.1"
     id="path268"
     d="M1970.76,2791.29a77.67,77.67,0,0,0-43.57,8.71h73.19A76,76,0,0,0,1970.76,2791.29Z"
     class="cls-4" />
  <path
     style="opacity:0.1"
     id="path270"
     d="M2000.37,0h-73.19c-16.07,8.71-27.43,23-29.57,40-3.8,30.09,22.78,57.06,59.38,60.24s69.34-18.64,73.15-48.73C2032.8,30.45,2020.53,10.91,2000.37,0Z"
     class="cls-4" />
  <path
     style="opacity:0.1"
     id="path272"
     d="M1889.2,92.25c-30.06-10.93-62.67,1.54-72.84,27.86s5.95,56.52,36,67.45S1915,186,1925.2,159.7,1919.25,103.18,1889.2,92.25Z"
     class="cls-4" />
  <path
     style="opacity:0.1"
     id="path274"
     d="M71.54,1337.7C34.91,1340.42,8,1367,11.41,1397.19s35.89,52.37,72.52,49.66,63.56-29.34,60.13-59.48S108.18,1335,71.54,1337.7Z"
     class="cls-4" />
  <path
     style="opacity:0.1"
     id="path276"
     d="M0,1246.3V1346c1.22-.35,2.44-.72,3.66-1.15,30.19-10.55,46.69-40.55,36.85-67C34.18,1260.84,18.45,1249.44,0,1246.3Z"
     class="cls-4" />
  <path
     style="opacity:0.1"
     id="path278"
     d="M80.63,1471.43c-32.42-11.52-67.11-1-80.63,23.56v45c7.32,14.44,21.33,26.87,39.83,33.44,34.61,12.3,71.8-.56,83.07-28.72S115.24,1483.73,80.63,1471.43Z"
     class="cls-4" />
  <path
     style="opacity:0.1"
     id="path280"
     d="M0,1611.61a49.35,49.35,0,0,0,0-31.91Z"
     class="cls-4" />
  <path
     style="opacity:0.1"
     id="path282"
     d="M5539.57,0c-17,23.73-29,53.08-32.3,81.2-9,76.65,51.3,53.46,92.72,46.42V0Z"
     class="cls-4" />
  <path
     style="opacity:0.1"
     id="path284"
     d="M5494.79,13.73A46.44,46.44,0,0,0,5510.5,0h-77.55C5449.32,18.29,5474.41,24.6,5494.79,13.73Z"
     class="cls-4" />
  <path
     style="opacity:0.1"
     id="path286"
     d="M5577.44,1445c6.91-51.32-54.09-110-114.8-125.56-85.5-21.92-53.68,63.45-58.89,102.19s-58.46,112.66,29.79,114.12C5496.2,1536.81,5570.54,1496.34,5577.44,1445Z"
     class="cls-4" />
  <path
     style="opacity:0.1"
     id="path288"
     d="M5568,1249.09c-30.19,10.55-46.69,40.55-36.85,67,9.44,25.38,39.71,38.26,68.82,29.93V1246.3A64.27,64.27,0,0,0,5568,1249.09Z"
     class="cls-4" />
  <path
     style="opacity:0.1"
     id="path290"
     d="M5597.56,1500.15c-5.25,13.12-3.94,27.23,2.44,39.82v-45A46.35,46.35,0,0,0,5597.56,1500.15Z"
     class="cls-4" />
  <path
     style="opacity:0.1"
     id="path292"
     d="M5576.25,1548.56c-26.33-18.16-61-14.31-77.51,8.6s-8.5,56.2,17.83,74.35,61,14.31,77.51-8.6a45.15,45.15,0,0,0,5.92-11.3V1579.7A61.35,61.35,0,0,0,5576.25,1548.56Z"
     class="cls-4" />
</svg>
