<svg id="Livello_1" data-name="Livello 1" xmlns="http://www.w3.org/2000/svg" viewBox="0 0 296.67 105.14"><defs><style>.cls-1{fill:#d34c4d;}.cls-2{fill:#3c3c3b;}.cls-3{fill:#fff;}</style></defs><title>Tavola disegno 1</title><path class="cls-1" d="M287.56.24h-97V74.53h97a8.67,8.67,0,0,0,8.65-8.65v-57A8.67,8.67,0,0,0,287.56.24"/><path class="cls-2" d="M185.5.24H9A8.67,8.67,0,0,0,.38,8.89v57A8.67,8.67,0,0,0,9,74.53H190.59V.24Z"/><path class="cls-3" d="M27.23,23.42a5.59,5.59,0,0,1,.61,3.18v3.94a7.79,7.79,0,0,1-.51,3.5,2,2,0,0,1-1.84.84,5.76,5.76,0,0,1-.7,0V22.67a3.09,3.09,0,0,1,2.45.75ZM13.51,59.28H24.78V42h2.94a13,13,0,0,0,5.63-1,5.48,5.48,0,0,0,2.82-3A17.15,17.15,0,0,0,37,31.79V27.95a31.93,31.93,0,0,0-.43-6.15,7.33,7.33,0,0,0-1.5-3.37,7.63,7.63,0,0,0-3.6-2.13,24.37,24.37,0,0,0-6.84-.75h-11V59.28Z"/><polygon class="cls-3" points="41.04 59.28 60.38 59.28 60.38 50.13 52.24 50.13 52.24 40.98 58.34 40.98 58.34 32.84 52.24 32.84 52.24 24.71 59.36 24.71 59.36 15.55 41.05 15.55 41.05 59.28 41.04 59.28"/><path class="cls-3" d="M78,23.29a3.61,3.61,0,0,1,.65,2.56v2.26c0,1.83-.11,2.91-.56,3.22a4.6,4.6,0,0,1-2.49.49V22.67a3.56,3.56,0,0,1,2.41.62Zm-13.46,36H75.63V38.94c1.39,0,2.36.3,2.68.87s.37,2.07.37,4.48v15H88.85V47.37a42.92,42.92,0,0,0-.29-6.67A7.45,7.45,0,0,0,87.05,38c-.78-1-2.28-1.75-4.51-2.32,2.46-.22,4.11-.89,5-2s1.28-3.34,1.28-6.63c0-3.59-.59-6.2-1.74-7.85a7.21,7.21,0,0,0-4.48-3.05A59.53,59.53,0,0,0,72,15.55h-7.6V59.28Z"/><path class="cls-3" d="M107.52,23.29a3.61,3.61,0,0,1,.65,2.56v2.26c0,1.83,0,2.91-.47,3.22a5,5,0,0,1-2.58.49V22.67a3.56,3.56,0,0,1,2.41.62Zm-13.37,36h11V38.94c1.39,0,2.45.3,2.77.87s.28,2.07.28,4.48v15h10.17V47.37a42.92,42.92,0,0,0-.29-6.67A7.86,7.86,0,0,0,116.45,38c-.78-1-2.28-1.75-4.51-2.32,2.46-.22,4.11-.89,5-2s1.28-3.34,1.28-6.63c0-3.59-.59-6.2-1.74-7.85A7.21,7.21,0,0,0,112,16.16a59.51,59.51,0,0,0-10.51-.6H93.94V59.28Z"/><path class="cls-3" d="M136.65,47.13a18.83,18.83,0,0,1-.59,5,1.23,1.23,0,0,1-1.26,1c-.67,0-.77-.3-.95-.91a25.15,25.15,0,0,1-.26-4.83V26.53c0-2.3.13-3.69.4-4.16s.36-.71.87-.71a1.55,1.55,0,0,1,1.5.87,16.71,16.71,0,0,1,.29,4Zm11.19-13.46a77.6,77.6,0,0,0-.58-9.5,10.58,10.58,0,0,0-2-5,10.14,10.14,0,0,0-4.35-3.45,15.7,15.7,0,0,0-6.12-1.16,15.12,15.12,0,0,0-6.28,1.22,10.35,10.35,0,0,0-4.29,3.5,10.24,10.24,0,0,0-1.53,5c-.21,1.84-.3,5-.3,9.37v7.5q0,6.79.3,9.5a9.33,9.33,0,0,0,6,8.49,15.88,15.88,0,0,0,6.12,1.14,15.16,15.16,0,0,0,6.28-1.22,10.17,10.17,0,0,0,4.27-3.5,11.13,11.13,0,0,0,2.16-5c.19-1.84.3-5,.3-9.39Z"/><path class="cls-3" d="M176.31,27A18.49,18.49,0,0,0,175,19.61,7.8,7.8,0,0,0,170.91,16a17.32,17.32,0,0,0-7.38-1.44,15.58,15.58,0,0,0-6.76,1.33,8.54,8.54,0,0,0-4.07,3.67q-1.24,2.36-1.24,7.44a15.75,15.75,0,0,0,.91,5.8,9.59,9.59,0,0,0,2.31,3.56,34.16,34.16,0,0,0,5.88,3.78c3,1.65,4.77,2.89,5.36,3.75s.85,2.69.85,5.48a5,5,0,0,1-.67,2.86,2.27,2.27,0,0,1-2,1,1.43,1.43,0,0,1-1.49-.78,7.28,7.28,0,0,1-.53-3.49V43H151.9v3a24.41,24.41,0,0,0,1,7.91,7.87,7.87,0,0,0,3.77,4.59,15.75,15.75,0,0,0,7.77,1.8,16.5,16.5,0,0,0,7.24-1.51A8.69,8.69,0,0,0,175.87,55c.73-1.49,1.1-3.81,1.1-7q0-6.51-2-9.44t-9.71-7.2c-1.8-1-2.85-1.86-3.16-2.65a9.79,9.79,0,0,1-.48-3.51,5.1,5.1,0,0,1,.56-2.7,1.84,1.84,0,0,1,1.66-.89,2.44,2.44,0,0,1,1.83.65,6.72,6.72,0,0,1,.43,3.05v3.42h10.17Z"/><polygon class="cls-3" points="204.78 15.55 204.78 59.28 223.09 59.28 223.09 50.13 215.97 50.13 215.97 15.55 205.06 15.55 204.78 15.55"/><polygon class="cls-3" points="226.14 15.55 226.14 59.28 237.33 59.28 237.33 15.55 226.1 15.55 226.14 15.55"/><polygon class="cls-3" points="239.9 59.28 251.56 59.28 251.56 40.98 257.67 40.98 257.67 32.84 251.56 32.84 251.56 24.71 258.68 24.71 258.68 15.55 240.38 15.55 240.38 59.28 239.9 59.28"/><polygon class="cls-3" points="261.34 59.28 281.06 59.28 281.06 50.13 272.92 50.13 272.92 40.98 279.02 40.98 279.02 32.84 272.92 32.84 272.92 24.71 280.04 24.71 280.04 15.55 261.73 15.55 261.73 59.28 261.34 59.28"/><polygon class="cls-2" points="38.35 88.14 34.55 88.14 32.96 101.03 31.47 101.03 33.05 88.14 29.25 88.14 29.41 86.87 38.51 86.87 38.35 88.14"/><path class="cls-2" d="M43.51,95c.2-1.29-.26-3.15-1.75-3.15S39.18,93.62,39,95Zm-4.71,1.2c-.35,2.87.75,3.87,2.2,3.87a3.66,3.66,0,0,0,2.67-1.73l.93.67a4.42,4.42,0,0,1-3.89,2.26c-2.24,0-3.84-1.55-3.37-5.31s2.44-5.31,4.67-5.31c2.89,0,3.35,3.09,2.84,5.55Z"/><path class="cls-2" d="M53.68,93.78c-.24-.93-.66-1.93-1.78-1.89-2.18,0-2.91,2.4-3.11,4.11s-.09,4.11,2.09,4.11a3.37,3.37,0,0,0,2.6-2l1.07.51a4.52,4.52,0,0,1-3.82,2.71c-2.24,0-3.84-1.55-3.37-5.31S49.8,90.69,52,90.69A2.88,2.88,0,0,1,55,93.24Z"/><path class="cls-2" d="M58.31,101H56.89l1.24-10h1.42l-.13,1a5,5,0,0,1,2.93-1.33c1.42,0,2.46.78,2.15,3.4L63.64,101H62.22l.8-6.57c.13-1.05.51-2.6-1-2.6a4.86,4.86,0,0,0-2.76,1.53Z"/><path class="cls-2" d="M69.54,88.44H68.12l.2-1.56h1.42ZM68,101H66.57l1.24-10h1.42Z"/><path class="cls-2" d="M77.59,93.78c-.24-.93-.66-1.93-1.78-1.89-2.18,0-2.91,2.4-3.11,4.11s-.09,4.11,2.09,4.11a3.37,3.37,0,0,0,2.6-2l1.07.51a4.52,4.52,0,0,1-3.82,2.71c-2.24,0-3.84-1.55-3.37-5.31s2.44-5.31,4.68-5.31a2.88,2.88,0,0,1,2.91,2.55Z"/><path class="cls-2" d="M86.38,95.55c-1.4.4-3.91.95-4.15,2.75A1.43,1.43,0,0,0,83.54,100a4.58,4.58,0,0,0,3.06-1.64L87,95.38Zm0,5.48,0-1.27a5,5,0,0,1-3.11,1.57,2.46,2.46,0,0,1-2.44-2.87c.36-2.87,3.46-3.49,5.75-4.09l.47-.13.07-.56c.13-1.15-.56-1.77-1.69-1.77a3.53,3.53,0,0,0-2.66,1.58l-.91-.75a4.79,4.79,0,0,1,3.71-2,2.73,2.73,0,0,1,2.95,3.13l-.62,5A6.08,6.08,0,0,0,88,101Z"/><path class="cls-2" d="M105.69,91.16c-.18-1.64-.71-3.37-2.66-3.37s-3.86,1.86-4.38,6.15.91,6.15,2.87,6.15,2.93-1.69,3.47-3.37l1.35.36c-.69,2.33-2.42,4.22-5,4.22-2.95,0-4.8-2.71-4.22-7.37s3.08-7.37,6-7.37c2.51,0,3.75,1.85,3.88,4.26Z"/><path class="cls-2" d="M111.58,88.44h-1.42l.2-1.56h1.42ZM110,101h-1.42l1.24-10h1.42Z"/><path class="cls-2" d="M114.38,101H113l1.24-10h1.42l-.13,1a5,5,0,0,1,2.93-1.33c1.42,0,2.46.78,2.15,3.4l-.86,6.93h-1.42l.8-6.57c.13-1.05.51-2.6-1-2.6a4.86,4.86,0,0,0-2.76,1.53Z"/><path class="cls-2" d="M129.59,96c.2-1.71.09-4.11-2.09-4.11s-2.91,2.4-3.11,4.11-.09,4.11,2.09,4.11,2.89-2.4,3.11-4.11M123,96c.45-3.76,2.44-5.31,4.68-5.31S131.46,92.24,131,96s-2.44,5.31-4.67,5.31S122.49,99.77,123,96"/><path class="cls-2" d="M139.43,101H138l1.09-8.84h-3L135,101h-1.42l1.09-8.84h-1.53l.15-1.2h1.53l.22-1.82a3,3,0,0,1,3.33-2.58,3.08,3.08,0,0,1,2,.47l-.16,1.38a2.32,2.32,0,0,0-1.95-.66,1.62,1.62,0,0,0-1.82,1.36L136.26,91h4.4Z"/><polygon class="cls-2" points="143.81 101.03 142.39 101.03 144.14 86.87 145.56 86.87 143.81 101.03"/><path class="cls-2" d="M152.3,95.55c-1.4.4-3.91.95-4.15,2.75a1.43,1.43,0,0,0,1.31,1.67,4.58,4.58,0,0,0,3.06-1.64l.36-2.95Zm0,5.48,0-1.27a5,5,0,0,1-3.11,1.57,2.46,2.46,0,0,1-2.44-2.87c.36-2.87,3.46-3.49,5.75-4.09l.47-.13.07-.56c.13-1.15-.56-1.77-1.69-1.77a3.54,3.54,0,0,0-2.66,1.58l-.91-.75a4.79,4.79,0,0,1,3.71-2,2.73,2.73,0,0,1,2.95,3.13l-.62,5a6.08,6.08,0,0,0,0,2.22Z"/><path class="cls-2" d="M168.05,95.55c-1.4.4-3.91.95-4.15,2.75a1.43,1.43,0,0,0,1.31,1.67,4.58,4.58,0,0,0,3.06-1.64l.36-2.95Zm0,5.48,0-1.27a5,5,0,0,1-3.11,1.57,2.46,2.46,0,0,1-2.44-2.87c.36-2.87,3.46-3.49,5.75-4.09l.47-.13.07-.56c.13-1.15-.56-1.77-1.69-1.77a3.54,3.54,0,0,0-2.66,1.58l-.91-.75a4.79,4.79,0,0,1,3.71-2,2.73,2.73,0,0,1,2.95,3.13l-.62,5a6.08,6.08,0,0,0,0,2.22Z"/><polygon class="cls-2" points="173.75 101.03 172.33 101.03 174.07 86.87 175.49 86.87 173.75 101.03"/><path class="cls-2" d="M206,88.44h-1.42l.2-1.56h1.42ZM204.48,101h-1.42l1.24-10h1.42Z"/><path class="cls-2" d="M187.53,91.76A2.65,2.65,0,0,0,185,94.2a1.89,1.89,0,0,0,1.8,2.36,2.5,2.5,0,0,0,2.55-2.38c.16-1.31-.42-2.42-1.84-2.42m-2,8.64c-.78.15-2,.6-2.07,1.51-.16,1.38,1.86,1.45,2.82,1.45s2.86-.2,3-1.58c.13-1.06-1.53-1.18-2.29-1.24ZM192,91.89h-.53a2,2,0,0,0-1.06.22,3.35,3.35,0,0,1,.36,2.07,3.88,3.88,0,0,1-3.8,3.46,4.17,4.17,0,0,1-1.58-.31c-.35.25-.93.58-1,1.07-.16,1.27,6.73-.33,6.26,3.48-.09.74-.55,2.62-4.57,2.62-3.27,0-4.15-1.27-4-2.51.13-1,1.11-1.6,2-2-.58-.24-1.18-.67-1.09-1.4.11-.89.84-1.16,1.49-1.84a3.16,3.16,0,0,1-.8-2.64,4,4,0,0,1,4-3.46,3.27,3.27,0,0,1,2.09.71,3.58,3.58,0,0,1,2.37-.76Z"/><path class="cls-2" d="M200,91h1.42l-1.24,10h-1.42l.13-1a5,5,0,0,1-2.93,1.33c-1.42,0-2.47-.78-2.15-3.4l.86-6.93H196l-.82,6.57c-.13,1.06-.13,2.6,1,2.6A4.86,4.86,0,0,0,199,98.62Z"/><path class="cls-2" d="M208.83,101h-1.42l1.24-10h1.42l-.13,1a5,5,0,0,1,2.93-1.33c1.42,0,2.46.78,2.15,3.4l-.86,6.93h-1.42l.8-6.57c.13-1.05.51-2.6-1-2.6a4.86,4.86,0,0,0-2.76,1.53Z"/><polygon class="cls-2" points="224.67 91.87 218.67 99.82 223.69 99.82 223.54 101.03 216.79 101.03 216.92 99.99 222.85 92.18 218.34 92.18 218.49 90.98 224.78 90.98 224.67 91.87"/><path class="cls-2" d="M231.76,95.55c-1.4.4-3.91.95-4.15,2.75a1.43,1.43,0,0,0,1.31,1.67A4.58,4.58,0,0,0,232,98.33l.36-2.95Zm0,5.48,0-1.27a5,5,0,0,1-3.11,1.57,2.46,2.46,0,0,1-2.44-2.87c.36-2.87,3.46-3.49,5.75-4.09l.47-.13.07-.56c.13-1.15-.56-1.77-1.69-1.77a3.54,3.54,0,0,0-2.66,1.58l-.91-.75a4.79,4.79,0,0,1,3.71-2A2.73,2.73,0,0,1,234,93.82l-.62,5a6.06,6.06,0,0,0,0,2.22Z"/><path class="cls-2" d="M240.91,91.76a2.65,2.65,0,0,0-2.51,2.44,1.9,1.9,0,0,0,1.8,2.36,2.5,2.5,0,0,0,2.55-2.38c.16-1.31-.42-2.42-1.84-2.42m-2,8.64c-.78.15-2,.6-2.07,1.51-.16,1.38,1.86,1.45,2.82,1.45s2.86-.2,3-1.58c.13-1.06-1.53-1.18-2.29-1.24Zm6.44-8.51h-.53a2,2,0,0,0-1.05.22,3.35,3.35,0,0,1,.36,2.07,3.88,3.88,0,0,1-3.8,3.46,4.16,4.16,0,0,1-1.58-.31c-.35.25-.93.58-1,1.07-.16,1.27,6.73-.33,6.26,3.48-.09.74-.55,2.62-4.57,2.62-3.28,0-4.15-1.27-4-2.51.13-1,1.11-1.6,2-2-.58-.24-1.18-.67-1.09-1.4.11-.89.84-1.16,1.49-1.84a3.15,3.15,0,0,1-.8-2.64,4,4,0,0,1,4-3.46,3.27,3.27,0,0,1,2.09.71,3.57,3.57,0,0,1,2.36-.76Z"/><polygon class="cls-2" points="248.22 101.03 246.8 101.03 248.55 86.87 249.97 86.87 248.22 101.03"/><path class="cls-2" d="M254.15,88.44h-1.42l.2-1.56h1.42ZM252.6,101h-1.42l1.24-10h1.42Z"/><path class="cls-2" d="M262.52,96c.2-1.71.09-4.11-2.09-4.11s-2.91,2.4-3.11,4.11-.09,4.11,2.09,4.11,2.89-2.4,3.11-4.11m-6.62,0c.45-3.76,2.44-5.31,4.67-5.31s3.82,1.55,3.37,5.31-2.44,5.31-4.68,5.31-3.84-1.55-3.37-5.31"/></svg>