<svg id="Livello_1" data-name="Livello 1" xmlns="http://www.w3.org/2000/svg" viewBox="0 0 296.67 74.75"><defs><style>.cls-1{fill:#d34c4d;}.cls-2{fill:#3c3c3b;}.cls-3{fill:#fff;}</style></defs><title>Tavola disegno 1</title><path class="cls-1" d="M287.56.24h-97V74.53h97a8.67,8.67,0,0,0,8.65-8.65v-57A8.67,8.67,0,0,0,287.56.24"/><path class="cls-2" d="M185.5.24H9A8.67,8.67,0,0,0,.38,8.89v57A8.67,8.67,0,0,0,9,74.53H190.59V.24Z"/><path class="cls-3" d="M27.23,23.42a5.59,5.59,0,0,1,.61,3.18v3.94a7.79,7.79,0,0,1-.51,3.5,2,2,0,0,1-1.84.84,5.76,5.76,0,0,1-.7,0V22.67a3.09,3.09,0,0,1,2.45.75ZM13.51,59.28H24.78V42h2.94a13,13,0,0,0,5.63-1,5.48,5.48,0,0,0,2.82-3A17.15,17.15,0,0,0,37,31.79V27.95a31.93,31.93,0,0,0-.43-6.15,7.33,7.33,0,0,0-1.5-3.37,7.63,7.63,0,0,0-3.6-2.13,24.37,24.37,0,0,0-6.84-.75h-11V59.28Z"/><polygon class="cls-3" points="41.04 59.28 60.38 59.28 60.38 50.13 52.24 50.13 52.24 40.98 58.34 40.98 58.34 32.84 52.24 32.84 52.24 24.71 59.36 24.71 59.36 15.55 41.05 15.55 41.05 59.28 41.04 59.28"/><path class="cls-3" d="M78,23.29a3.61,3.61,0,0,1,.65,2.56v2.26c0,1.83-.11,2.91-.56,3.22a4.6,4.6,0,0,1-2.49.49V22.67a3.56,3.56,0,0,1,2.41.62Zm-13.46,36H75.63V38.94c1.39,0,2.36.3,2.68.87s.37,2.07.37,4.48v15H88.85V47.37a42.92,42.92,0,0,0-.29-6.67A7.45,7.45,0,0,0,87.05,38c-.78-1-2.28-1.75-4.51-2.32,2.46-.22,4.11-.89,5-2s1.28-3.34,1.28-6.63c0-3.59-.59-6.2-1.74-7.85a7.21,7.21,0,0,0-4.48-3.05A59.53,59.53,0,0,0,72,15.55h-7.6V59.28Z"/><path class="cls-3" d="M107.52,23.29a3.61,3.61,0,0,1,.65,2.56v2.26c0,1.83,0,2.91-.47,3.22a5,5,0,0,1-2.58.49V22.67a3.56,3.56,0,0,1,2.41.62Zm-13.37,36h11V38.94c1.39,0,2.45.3,2.77.87s.28,2.07.28,4.48v15h10.17V47.37a42.92,42.92,0,0,0-.29-6.67A7.86,7.86,0,0,0,116.45,38c-.78-1-2.28-1.75-4.51-2.32,2.46-.22,4.11-.89,5-2s1.28-3.34,1.28-6.63c0-3.59-.59-6.2-1.74-7.85A7.21,7.21,0,0,0,112,16.16a59.51,59.51,0,0,0-10.51-.6H93.94V59.28Z"/><path class="cls-3" d="M136.65,47.13a18.83,18.83,0,0,1-.59,5,1.23,1.23,0,0,1-1.26,1c-.67,0-.77-.3-.95-.91a25.15,25.15,0,0,1-.26-4.83V26.53c0-2.3.13-3.69.4-4.16s.36-.71.87-.71a1.55,1.55,0,0,1,1.5.87,16.71,16.71,0,0,1,.29,4Zm11.19-13.46a77.6,77.6,0,0,0-.58-9.5,10.58,10.58,0,0,0-2-5,10.14,10.14,0,0,0-4.35-3.45,15.7,15.7,0,0,0-6.12-1.16,15.12,15.12,0,0,0-6.28,1.22,10.35,10.35,0,0,0-4.29,3.5,10.24,10.24,0,0,0-1.53,5c-.21,1.84-.3,5-.3,9.37v7.5q0,6.79.3,9.5a9.33,9.33,0,0,0,6,8.49,15.88,15.88,0,0,0,6.12,1.14,15.16,15.16,0,0,0,6.28-1.22,10.17,10.17,0,0,0,4.27-3.5,11.13,11.13,0,0,0,2.16-5c.19-1.84.3-5,.3-9.39Z"/><path class="cls-3" d="M176.31,27A18.49,18.49,0,0,0,175,19.61,7.8,7.8,0,0,0,170.91,16a17.32,17.32,0,0,0-7.38-1.44,15.58,15.58,0,0,0-6.76,1.33,8.54,8.54,0,0,0-4.07,3.67q-1.24,2.36-1.24,7.44a15.75,15.75,0,0,0,.91,5.8,9.59,9.59,0,0,0,2.31,3.56,34.16,34.16,0,0,0,5.88,3.78c3,1.65,4.77,2.89,5.36,3.75s.85,2.69.85,5.48a5,5,0,0,1-.67,2.86,2.27,2.27,0,0,1-2,1,1.43,1.43,0,0,1-1.49-.78,7.28,7.28,0,0,1-.53-3.49V43H151.9v3a24.41,24.41,0,0,0,1,7.91,7.87,7.87,0,0,0,3.77,4.59,15.75,15.75,0,0,0,7.77,1.8,16.5,16.5,0,0,0,7.24-1.51A8.69,8.69,0,0,0,175.87,55c.73-1.49,1.1-3.81,1.1-7q0-6.51-2-9.44t-9.71-7.2c-1.8-1-2.85-1.86-3.16-2.65a9.79,9.79,0,0,1-.48-3.51,5.1,5.1,0,0,1,.56-2.7,1.84,1.84,0,0,1,1.66-.89,2.44,2.44,0,0,1,1.83.65,6.72,6.72,0,0,1,.43,3.05v3.42h10.17Z"/><polygon class="cls-3" points="204.78 15.55 204.78 59.28 223.09 59.28 223.09 50.13 215.97 50.13 215.97 15.55 205.06 15.55 204.78 15.55"/><polygon class="cls-3" points="226.14 15.55 226.14 59.28 237.33 59.28 237.33 15.55 226.1 15.55 226.14 15.55"/><polygon class="cls-3" points="239.9 59.28 251.56 59.28 251.56 40.98 257.67 40.98 257.67 32.84 251.56 32.84 251.56 24.71 258.68 24.71 258.68 15.55 240.38 15.55 240.38 59.28 239.9 59.28"/><polygon class="cls-3" points="261.34 59.28 281.06 59.28 281.06 50.13 272.92 50.13 272.92 40.98 279.02 40.98 279.02 32.84 272.92 32.84 272.92 24.71 280.04 24.71 280.04 15.55 261.73 15.55 261.73 59.28 261.34 59.28"/></svg>