<?xml version="1.0" encoding="UTF-8" standalone="no"?>
<svg
   xmlns:dc="http://purl.org/dc/elements/1.1/"
   xmlns:cc="http://creativecommons.org/ns#"
   xmlns:rdf="http://www.w3.org/1999/02/22-rdf-syntax-ns#"
   xmlns:svg="http://www.w3.org/2000/svg"
   xmlns="http://www.w3.org/2000/svg"
   id="svg42485"
   version="1.1"
   viewBox="0 0 7.6466465 7.6466756"
   height="7.6466756mm"
   width="7.6466465mm">
  <defs
     id="defs42479">
    <clipPath
       id="clipPath1096"
       clipPathUnits="userSpaceOnUse">
      <path
         id="path1094"
         d="M 0,0 H 2140 V 4000 H 0 Z" />
    </clipPath>
  </defs>
  <metadata
     id="metadata42482">
    <rdf:RDF>
      <cc:Work
         rdf:about="">
        <dc:format>image/svg+xml</dc:format>
        <dc:type
           rdf:resource="http://purl.org/dc/dcmitype/StillImage" />
        <dc:title></dc:title>
      </cc:Work>
    </rdf:RDF>
  </metadata>
  <g
     transform="translate(5.3352295,-129.89093)"
     id="layer1">
    <g
       id="g1090"
       transform="matrix(0.35277777,0,0,-0.35277777,-444.71175,1180.0108)">
      <g
         clip-path="url(#clipPath1096)"
         id="g1092">
        <g
           transform="translate(1248.8203,2971.9507)"
           id="g1098">
          <path
             id="path1100"
             style="fill:none;stroke:#ffffff;stroke-width:1.75300002;stroke-linecap:butt;stroke-linejoin:miter;stroke-miterlimit:4;stroke-dasharray:none;stroke-opacity:1"
             d="m 0,0 c -1.033,-0.291 -2.467,-1.097 -2.467,-3.339 v -9.19 c 0,0 0,-3.503 3.502,-3.503 h 9.188 c 0,0 2.831,0 3.402,2.546" />
        </g>
        <g
           transform="translate(1255.0598,2975.8413)"
           id="g1102">
          <path
             id="path1104"
             style="fill:none;stroke:#ffffff;stroke-width:1.75300002;stroke-linecap:butt;stroke-linejoin:miter;stroke-miterlimit:4;stroke-dasharray:none;stroke-opacity:1"
             d="m 0,0 c 0,0 -4.97,0 -4.97,-4.969 v -6.247 c 0,0 0,-4.97 4.97,-4.97 h 6.247 c 0,0 4.969,0 4.969,4.97 v 6.247 c 0,0 0,4.969 -4.969,4.969 z" />
        </g>
      </g>
    </g>
  </g>
</svg>
